<svg width="80" height="78" fill="none" xmlns="http://www.w3.org/2000/svg"><path d="M64.158 78H15.842C7.129 78 0 70.829 0 62.064V15.936C0 7.171 7.129 0 15.842 0h48.316C72.871 0 80 7.171 80 15.936v46.128C80 70.829 72.96 78 64.158 78z" fill="#7441EE"/><path fill-rule="evenodd" clip-rule="evenodd" d="M41.54 52.236l-5.104 5.135c-1.056 1.063-2.729 1.063-3.697 0l-5.192-5.135c-1.056-1.062-1.056-2.744 0-3.718l5.104-5.136c1.056-1.062 2.728-1.062 3.697 0l5.104 5.136c1.144 1.062 1.144 2.744.088 3.718zM29.835 40.815l-5.105 5.224c-1.056 1.062-2.728 1.062-3.696 0l-5.192-5.224c-1.056-1.063-1.056-2.745 0-3.718l5.104-5.136c1.056-1.062 2.728-1.062 3.696 0l5.105 5.136c1.144 1.062 1.144 2.744.088 3.718zM52.893 40.904l-5.104 5.135c-1.056 1.062-2.729 1.062-3.697 0l-5.104-5.136c-1.056-1.062-1.056-2.744 0-3.718l5.104-5.135c1.056-1.062 2.729-1.062 3.697 0l5.104 5.135c1.056.974 1.056 2.656 0 3.718zM64.246 29.482l-5.104 5.136c-1.056 1.062-2.728 1.062-3.697 0l-5.28-5.136c-1.056-1.062-1.056-2.744 0-3.718l5.105-5.135c1.056-1.063 2.728-1.063 3.696 0l5.104 5.135c1.145.974 1.145 2.656.176 3.718z" fill="#fff"/></svg>