<svg width="464" height="356" fill="none" xmlns="http://www.w3.org/2000/svg"><g clip-path="url(#clip0)" fill-rule="evenodd" clip-rule="evenodd"><path d="M252.15 292.953l-58.272 58.155c-6.535 6.523-16.883 6.523-22.873 0l-58.817-58.155c-6.535-6.522-6.535-16.849 0-22.828l58.272-58.156c6.535-6.522 16.883-6.522 22.873 0l58.273 58.156c6.535 5.979 6.535 16.306.544 22.828z" fill="#49C3FD"/><path d="M144.319 189.142l-58.272 58.156c-6.535 6.522-16.883 6.522-22.873 0L4.9 189.142c-6.535-6.522-6.535-16.849 0-22.827l58.273-58.156c6.535-6.522 16.882-6.522 22.873 0l58.272 58.156c6.535 6.522 6.535 16.848 0 22.827z" fill="#00ABFC"/><path d="M355.624 189.685l-58.272 57.613c-6.535 6.522-16.883 6.522-22.873 0l-58.272-57.613c-6.536-6.522-6.536-16.848 0-22.827l58.272-58.156c6.535-6.522 16.882-6.522 22.873 0l58.272 58.156c6.536 5.979 6.536 16.305 0 22.827z" fill="#92DBFE"/><path d="M459.643 85.875l-58.272 58.156c-6.535 6.522-16.883 6.522-22.873 0l-58.273-58.156c-6.535-6.522-6.535-16.849 0-22.828l57.728-58.155c6.535-6.523 16.883-6.523 22.873 0l58.273 58.155c6.535 5.979 6.535 16.306.544 22.828z" fill="#DBF3FF"/></g><defs><clipPath id="clip0"><path fill="#fff" d="M0 0h464v356H0z"/></clipPath></defs></svg>