<svg width="340" height="261" fill="none" xmlns="http://www.w3.org/2000/svg"><g clip-path="url(#clip0)" fill="#fff"><g opacity=".6" fill-rule="evenodd" clip-rule="evenodd"><path opacity=".75" d="M184.765 214.777l-42.699 42.637c-4.789 4.781-12.371 4.781-16.761 0l-43.098-42.637c-4.79-4.782-4.79-12.353 0-16.736l42.699-42.636c4.789-4.782 12.371-4.782 16.761 0l42.699 42.636c4.789 4.383 4.789 11.954.399 16.736z"/><path d="M105.751 138.669l-42.7 42.636c-4.788 4.782-12.37 4.782-16.76 0l-42.7-42.636c-4.788-4.782-4.788-12.353 0-16.736l42.7-42.637c4.789-4.782 12.371-4.782 16.76 0l42.7 42.637c4.789 4.782 4.789 12.353 0 16.736z"/><path opacity=".5" d="M260.587 139.067l-42.7 42.238c-4.788 4.782-12.371 4.782-16.76 0l-42.7-42.238c-4.789-4.781-4.789-12.352 0-16.736l42.7-42.636c4.788-4.782 12.371-4.782 16.76 0l42.7 42.636c4.789 4.384 4.789 11.955 0 16.736z"/><path opacity=".35" d="M336.808 62.959l-42.7 42.636c-4.789 4.782-12.371 4.782-16.761 0l-42.699-42.636c-4.789-4.782-4.789-12.353 0-16.736l42.3-42.637c4.789-4.781 12.371-4.781 16.761 0l42.699 42.637c4.789 4.383 4.789 11.954.4 16.736z"/></g><rect x="30.776" y="112.905" width="47.629" height="7.331" rx="3"/><rect x="109.181" y="189.152" width="47.629" height="7.331" rx="3"/><rect x="185.388" y="112.905" width="47.629" height="7.331" rx="3"/><rect x="261.595" y="36.657" width="47.629" height="7.331" rx="3"/><rect x="30.776" y="126.834" width="47.629" height="7.331" rx="3"/><rect x="109.181" y="203.081" width="47.629" height="7.331" rx="3"/><rect x="185.388" y="126.834" width="47.629" height="7.331" rx="3"/><rect x="261.595" y="50.587" width="47.629" height="7.331" rx="3"/><rect x="30.776" y="140.764" width="25.647" height="7.331" rx="3"/><rect x="109.181" y="217.011" width="25.647" height="7.331" rx="3"/><rect x="185.388" y="140.764" width="25.646" height="7.331" rx="3"/><rect x="261.595" y="64.517" width="25.647" height="7.331" rx="3"/></g><defs><clipPath id="clip0"><path fill="#fff" d="M0 0h340v261H0z"/></clipPath></defs></svg>