<svg width="79" height="77" fill="none" xmlns="http://www.w3.org/2000/svg"><path d="M63.356 77H15.644C7.04 77 0 69.92 0 61.268V15.732C0 7.08 7.04 0 15.644 0h47.712C71.96 0 79 7.08 79 15.732v45.536C79 69.92 72.047 77 63.356 77z" fill="#fff"/><path fill-rule="evenodd" clip-rule="evenodd" d="M41.02 51.566l-5.04 5.07c-1.043 1.048-2.694 1.048-3.65 0l-5.128-5.07c-1.043-1.048-1.043-2.709 0-3.67l5.04-5.07c1.044-1.048 2.695-1.048 3.651 0l5.04 5.07c1.13 1.048 1.13 2.71.088 3.67zM29.462 40.292l-5.04 5.157c-1.044 1.048-2.695 1.048-3.65 0l-5.128-5.157c-1.043-1.049-1.043-2.71 0-3.671l5.04-5.07c1.043-1.048 2.694-1.048 3.65 0l5.041 5.07c1.13 1.049 1.13 2.71.087 3.67zM52.233 40.38l-5.041 5.069c-1.043 1.048-2.694 1.048-3.65 0l-5.041-5.07c-1.043-1.049-1.043-2.71 0-3.67l5.04-5.07c1.044-1.049 2.695-1.049 3.65 0l5.041 5.07c1.043.96 1.043 2.621 0 3.67zM63.443 29.105l-5.04 5.069c-1.043 1.049-2.694 1.049-3.65 0l-5.215-5.07c-1.043-1.048-1.043-2.709 0-3.67l5.04-5.07c1.044-1.048 2.695-1.048 3.65 0l5.042 5.07c1.13.961 1.13 2.622.173 3.67z" fill="#7441EE"/></svg>