<svg width="190" height="51" fill="none" xmlns="http://www.w3.org/2000/svg"><g clip-path="url(#clip0)"><path d="M65.845 5.087H61.8a.765.765 0 01-.766-.77V1.155c0-.427.34-.77.766-.77H77.04c.425 0 .766.343.766.77v3.164c0 .427-.34.77-.766.77h-4.044a.765.765 0 00-.766.769v14.962c0 .427-.34.77-.766.77h-4.044a.765.765 0 01-.766-.77V5.857c-.042-.428-.383-.77-.808-.77zM97.767 18.34l2.213-2.694a.787.787 0 011.064-.128c1.405.983 2.979 1.624 4.341 1.624 1.703 0 2.384-.555 2.384-1.496 0-1.026-1.064-1.325-2.852-2.052l-2.639-1.111c-2.256-.898-4.256-2.822-4.256-5.9C98.065 2.95 101.299 0 105.939 0c2.17 0 4.596.77 6.469 2.351.341.257.383.77.085 1.069l-1.915 2.394a.786.786 0 01-1.022.17c-1.191-.769-2.298-1.153-3.66-1.153s-2.213.47-2.213 1.453c0 1.026 1.192 1.368 3.107 2.138l2.554 1.026c2.639 1.026 4.128 2.864 4.128 5.813 0 3.591-2.979 6.798-8.257 6.798-2.426 0-5.193-.813-7.363-2.523-.298-.341-.34-.855-.085-1.197zM117.686.385h4.043c.426 0 .767.342.767.77V8.25h.127l5.108-7.567a.748.748 0 01.638-.342h4.171c.639 0 .979.727.639 1.24l-5.108 6.968c-.17.256-.213.598-.042.855l6.554 10.987c.298.512-.042 1.196-.681 1.196h-4.298c-.256 0-.554-.128-.681-.384l-3.831-6.712c-.298-.513-.979-.513-1.32-.043l-1.191 1.667a.83.83 0 00-.128.428v4.275c0 .428-.341.77-.766.77h-4.044a.765.765 0 01-.766-.77V1.154c.043-.427.383-.77.809-.77zM65.845 34.114H61.8a.765.765 0 01-.766-.77v-3.163c0-.427.34-.77.766-.77H77.04c.425 0 .766.343.766.77v3.163c0 .428-.34.77-.766.77h-4.044a.765.765 0 00-.766.77v14.962c0 .427-.34.77-.766.77h-4.044a.765.765 0 01-.766-.77V34.884c-.042-.428-.383-.77-.808-.77zM84.317 17.1h4.682c.34 0 .68.256.766.598l.766 3.292a.78.78 0 00.766.598h4.257c.51 0 .893-.513.723-.983L90.318.94a.73.73 0 00-.723-.555h-5.618a.73.73 0 00-.724.555l-5.959 19.665c-.17.513.213.983.724.983h4.043c.34 0 .681-.256.766-.598l.767-3.292c.085-.342.383-.598.723-.598zm2.256-11.927h.128c.51 2.137 1.021 4.702 1.574 6.711l.128.513c.128.47-.255.94-.766.94h-1.915c-.511 0-.852-.47-.766-.94l.127-.513c.51-2.009 1.022-4.531 1.49-6.711zM83.21 29.967l-5.959 19.665c-.17.513.213.983.724.983h4.043c.34 0 .681-.256.766-.598l.767-3.292a.78.78 0 01.766-.598h4.682c.34 0 .68.256.766.598l.766 3.292a.78.78 0 00.766.598h4.256c.511 0 .894-.513.724-.983l-5.959-19.665a.73.73 0 00-.723-.555h-5.619c-.34 0-.638.213-.766.555zm2.511 12.398c-.51 0-.85-.47-.766-.94l.128-.514c.51-2.01 1.021-4.574 1.49-6.712h.127c.511 2.138 1.022 4.703 1.575 6.712l.128.513c.127.47-.256.94-.766.94H85.72zM97.34 40.184c0-7.096 4.853-11.157 10.216-11.157 2.469 0 4.512 1.026 6.001 2.265.341.257.383.77.085 1.07l-1.957 2.436c-.256.342-.724.385-1.065.128-.851-.641-1.787-1.111-2.936-1.111-2.469 0-4.597 2.266-4.597 6.113 0 3.976 1.83 6.199 4.554 6.199 1.32 0 2.426-.556 3.277-1.283.341-.3.809-.256 1.107.086l1.958 2.35c.255.3.255.77-.043 1.027-1.745 1.752-3.958 2.607-6.469 2.607-5.448.086-10.13-3.505-10.13-10.73zM118.069 29.412h4.043c.426 0 .767.341.767.769v7.096h.127l5.108-7.566a.75.75 0 01.638-.342h4.171c.639 0 .979.727.639 1.24l-5.108 6.968c-.17.256-.212.598-.042.855l6.554 10.986c.298.513-.042 1.197-.681 1.197h-4.298c-.256 0-.554-.128-.681-.385l-3.831-6.711c-.298-.513-.979-.513-1.32-.043l-1.191 1.667a.83.83 0 00-.128.428v4.275c0 .427-.34.77-.766.77h-4.044a.765.765 0 01-.766-.77V30.18c.043-.428.383-.77.809-.77zM138.457 29.412h4.043c.426 0 .766.342.766.77v14.961c0 .428.341.77.766.77h6.427c.426 0 .766.342.766.77v3.163c0 .427-.34.77-.766.77h-12.045a.764.764 0 01-.766-.77V30.18c.042-.427.383-.77.809-.77zM155.694 29.412h12.088c.426 0 .766.342.766.77v3.162c0 .428-.34.77-.766.77h-6.512a.765.765 0 00-.766.77v1.752c0 .428.341.77.766.77h5.321c.425 0 .766.342.766.77v3.163c0 .427-.341.77-.766.77h-5.321a.765.765 0 00-.766.769V45.1c0 .427.341.77.766.77h6.853c.425 0 .766.341.766.769v3.163c0 .428-.341.77-.766.77h-12.429a.765.765 0 01-.766-.77V30.138c-.042-.384.341-.726.766-.726zM189.915 49.461l-3.575-6.412c-.213-.342-.086-.813.212-1.026 1.703-1.155 2.81-3.036 2.81-5.772 0-5.3-3.916-6.84-8.428-6.84h-7.235a.765.765 0 00-.767.77v19.665c0 .427.341.77.767.77h4.043a.764.764 0 00.766-.77v-5.558c0-.427.341-.77.766-.77h.894c.298 0 .553.172.681.428l3.192 6.285a.758.758 0 00.681.427h4.427c.681-.043 1.064-.684.766-1.197zm-11.364-14.834c0-.428.34-.77.766-.77h1.234c2.213 0 3.363.599 3.363 2.395 0 1.838-1.15 2.82-3.363 2.82h-1.234a.764.764 0 01-.766-.769v-3.676z" fill="#37374B"/><path d="M43.925 50.615H7.66C3.448 50.615 0 47.153 0 42.92V8.08C0 3.847 3.448.385 7.661.385h36.264c4.213 0 7.661 3.462 7.661 7.695v34.84c0 4.233-3.405 7.695-7.661 7.695z" fill="url(#paint0_linear)"/><path fill-rule="evenodd" clip-rule="evenodd" d="M27.368 35.097l-4.554 4.574c-.511.513-1.32.513-1.788 0l-4.597-4.574c-.51-.513-.51-1.325 0-1.795l4.554-4.575c.511-.512 1.32-.512 1.788 0l4.554 4.575c.511.47.511 1.282.043 1.795z" fill="url(#paint1_linear)"/><path fill-rule="evenodd" clip-rule="evenodd" d="M18.94 26.932l-4.554 4.574c-.51.513-1.32.513-1.787 0l-4.555-4.574c-.51-.513-.51-1.325 0-1.795l4.555-4.575c.51-.513 1.319-.513 1.787 0l4.554 4.575c.511.513.511 1.325 0 1.795z" fill="url(#paint2_linear)"/><path fill-rule="evenodd" clip-rule="evenodd" d="M35.455 26.975L30.9 31.506c-.511.513-1.32.513-1.788 0l-4.554-4.531c-.511-.513-.511-1.325 0-1.796l4.554-4.574c.51-.513 1.32-.513 1.788 0l4.554 4.574c.51.47.51 1.283 0 1.796z" fill="url(#paint3_linear)"/><path fill-rule="evenodd" clip-rule="evenodd" d="M43.584 18.81l-4.554 4.574c-.51.513-1.32.513-1.788 0l-4.554-4.574c-.51-.513-.51-1.325 0-1.796l4.554-4.574c.511-.513 1.32-.513 1.788 0l4.554 4.574c.468.47.468 1.283 0 1.796z" fill="url(#paint4_linear)"/><path fill-rule="evenodd" clip-rule="evenodd" d="M27.368 34.242l-4.554 4.574c-.511.513-1.32.513-1.788 0l-4.597-4.574c-.51-.513-.51-1.325 0-1.795l4.554-4.574c.511-.513 1.32-.513 1.788 0l4.554 4.574c.511.47.511 1.282.043 1.795z" fill="#49C3FD"/><path fill-rule="evenodd" clip-rule="evenodd" d="M18.94 26.077l-4.554 4.574c-.51.513-1.32.513-1.787 0l-4.555-4.574c-.51-.513-.51-1.325 0-1.795l4.555-4.575c.51-.513 1.319-.513 1.787 0l4.554 4.575c.511.513.511 1.325 0 1.795z" fill="#00ABFC"/><path fill-rule="evenodd" clip-rule="evenodd" d="M35.455 26.12L30.9 30.65c-.511.513-1.32.513-1.788 0l-4.554-4.531c-.511-.513-.511-1.325 0-1.796l4.554-4.574c.51-.513 1.32-.513 1.788 0l4.554 4.574c.51.47.51 1.283 0 1.796z" fill="#92DBFE"/><path fill-rule="evenodd" clip-rule="evenodd" d="M43.584 17.955l-4.554 4.574c-.51.513-1.32.513-1.788 0l-4.554-4.574c-.51-.513-.51-1.325 0-1.796l4.554-4.574c.511-.513 1.32-.513 1.788 0l4.554 4.574c.468.47.468 1.283 0 1.796z" fill="#DBF3FF"/></g><defs><linearGradient id="paint0_linear" x1="25.802" y1="6.578" x2="25.802" y2="48.156" gradientUnits="userSpaceOnUse"><stop stop-color="#37374B"/><stop offset="1" stop-color="#252532"/></linearGradient><linearGradient id="paint1_linear" x1="16.075" y1="34.199" x2="27.722" y2="34.199" gradientUnits="userSpaceOnUse"><stop stop-color="#37374B"/><stop offset="1" stop-color="#252532"/></linearGradient><linearGradient id="paint2_linear" x1="7.661" y1="26.04" x2="19.308" y2="26.04" gradientUnits="userSpaceOnUse"><stop stop-color="#37374B"/><stop offset="1" stop-color="#252532"/></linearGradient><linearGradient id="paint3_linear" x1="24.186" y1="26.052" x2="35.833" y2="26.052" gradientUnits="userSpaceOnUse"><stop stop-color="#37374B"/><stop offset="1" stop-color="#252532"/></linearGradient><linearGradient id="paint4_linear" x1="32.297" y1="17.905" x2="43.944" y2="17.905" gradientUnits="userSpaceOnUse"><stop stop-color="#37374B"/><stop offset="1" stop-color="#252532"/></linearGradient><clipPath id="clip0"><path fill="#fff" d="M0 0h190v51H0z"/></clipPath></defs></svg>