<svg width="35" height="29" fill="none" xmlns="http://www.w3.org/2000/svg"><path fill-rule="evenodd" clip-rule="evenodd" d="M34.2 16.4c0 .5-.4.8-.8.8-.5 0-.8-.4-.8-.8 0-6-3.2-11.7-8.4-14.7-.4-.2-.5-.7-.3-1.1.2-.4.7-.5 1.1-.3 5.6 3.3 9.2 9.5 9.2 16.1zM21.1 4.4c.2-.4.7-.5 1.1-.3 4.5 2.5 7.3 7.2 7.3 12.3 0 .5-.4.8-.8.8-.5 0-.8-.4-.8-.8 0-4.5-2.5-8.7-6.4-10.9-.5-.2-.6-.7-.4-1.1z" fill="#fff"/><path d="M22.6 12.1l.3.3c.7.7.7 1.7 0 2.4L9.6 28.1c-.7.7-1.7.7-2.4 0l-.3-.3c-1.1-1.1-1.2-2.7-.3-3.9L3 20.2C-.3 16.9-.3 11.4 3 8.1c3.3-3.3 8.8-3.3 12.1 0l3.6 3.6c1.2-.8 2.9-.7 3.9.4zm-9 12.1l1.2-1.2c.8.8 2.2.8 3 0 .8-.8.8-2.2 0-3l1.2-1.2c1.5 1.5 1.5 3.9 0 5.4-1.5 1.5-3.9 1.5-5.4 0z" fill="#fff"/></svg>