<svg width="61" height="59" viewBox="0 0 61 59" fill="none" xmlns="http://www.w3.org/2000/svg">
<g clip-path="url(#clip0)">
<path d="M42.6 58.7H18C8.1 58.7 0 50.6 0 40.7V18C0 8.1 8.1 0 18 0H42.6C52.5 0 60.6 8.1 60.6 18V40.7C60.6 50.7 52.6 58.7 42.6 58.7Z" fill="#00ABFC"/>
<path fill-rule="evenodd" clip-rule="evenodd" d="M31.5998 38.3L27.7998 42.1C27.2998 42.6 26.4998 42.6 26.0998 42.1L22.2998 38.3C21.7998 37.8 21.7998 37 22.2998 36.6L26.0998 32.8C26.5998 32.3 27.3998 32.3 27.7998 32.8L31.5998 36.6C32.0998 37 32.0998 37.8 31.5998 38.3Z" fill="white"/>
<path fill-rule="evenodd" clip-rule="evenodd" d="M24.2 31.2L20.5 35C20 35.5 19.2 35.5 18.8 35L15 31.2C14.5 30.7 14.5 29.9 15 29.5L18.8 25.7C19.3 25.2 20.1 25.2 20.5 25.7L24.3 29.5C24.7 30 24.7 30.7 24.2 31.2Z" fill="white"/>
<path fill-rule="evenodd" clip-rule="evenodd" d="M38.5998 31.2L34.7998 35C34.2998 35.5 33.4998 35.5 33.0998 35L29.2998 31.2C28.7998 30.7 28.7998 29.9 29.2998 29.5L33.0998 25.7C33.5998 25.2 34.3998 25.2 34.7998 25.7L38.5998 29.5C39.0998 30 39.0998 30.8 38.5998 31.2Z" fill="white"/>
<path fill-rule="evenodd" clip-rule="evenodd" d="M45.6999 24.2L41.8999 28C41.3999 28.5 40.5999 28.5 40.1999 28L36.3999 24.2C35.8999 23.7 35.8999 22.9 36.3999 22.5L40.1999 18.7C40.6999 18.2 41.4999 18.2 41.8999 18.7L45.6999 22.5C46.1999 22.9 46.1999 23.7 45.6999 24.2Z" fill="white"/>
</g>
<defs>
<clipPath id="clip0">
<rect width="60.6" height="58.7" fill="white"/>
</clipPath>
</defs>
</svg>
