<svg width="26" height="27" fill="none" xmlns="http://www.w3.org/2000/svg"><path d="M11.7 7.9c0-.7.4-1.3 1-1.5.6-.3 1.3-.1 1.8.4s.6 1.2.4 1.8c-.3.6-.9 1-1.5 1-.4 0-.9-.2-1.2-.5-.3-.3-.5-.7-.5-1.2zm5.2 0c0-1.4-.8-2.7-2-3.3-.4-.2-.6-.5-.6-.9V1.3c0-.5-.4-1-1-1-.5 0-1 .4-1 1v2.4c0 .4-.2.7-.6.9-1.2.6-2.1 1.8-2.1 3.3 0 1.4.8 2.7 2.1 3.3.4.2.6.5.6.9v13.2c0 .5.4 1 1 1 .5 0 1-.4 1-1V12.1c0-.4.2-.7.6-.9 1.2-.6 2-1.8 2-3.3zM20.7 18.8c0-.7.4-1.3 1-1.5.6-.3 1.3-.1 1.8.4s.6 1.2.4 1.8c-.3.6-.9 1-1.5 1-.4 0-.9-.2-1.2-.5-.3-.4-.5-.8-.5-1.2zm5.3 0c0-1.4-.8-2.7-2-3.3-.4-.2-.6-.5-.6-.9V1.4c0-.5-.4-1-1-1-.5 0-1 .4-1 1v13.2c0 .4-.2.7-.6.9-1.2.6-2.1 1.8-2.1 3.3 0 1.4.8 2.7 2.1 3.3.4.2.6.5.6.9v2.4c0 .5.4 1 1 1 .5 0 1-.4 1-1V23c0-.4.2-.7.6-.9 1.1-.7 2-1.9 2-3.3zM2.7 18.8c0-.7.4-1.3 1-1.5.6-.3 1.3-.1 1.8.4s.6 1.2.4 1.8c-.3.6-.9 1-1.5 1-.4 0-.9-.2-1.2-.5-.4-.4-.5-.8-.5-1.2zm5.2 0c0-1.4-.8-2.7-2-3.3-.4-.2-.6-.5-.6-.9V1.4c0-.5-.4-1-1-1-.5 0-1 .4-1 1v13.2c0 .4-.2.7-.6.9-1.2.6-2.1 1.8-2.1 3.3 0 1.4.8 2.7 2.1 3.3.4.2.6.5.6.9v2.4c0 .5.4 1 1 1 .5 0 1-.4 1-1V23c0-.4.2-.7.6-.9 1.2-.7 2-1.9 2-3.3z" fill="#fff"/></svg>