<svg width="33" height="26" fill="none" xmlns="http://www.w3.org/2000/svg"><path d="M16.3 10.9l-1.7 10.2c-.5.5-.8 1.3-.6 2.1.2.9.9 1.7 1.8 1.9 1.5.3 2.9-.8 2.9-2.3 0-.6-.3-1.2-.7-1.6l-1.7-10.3zm0-10.4C7.4.5.1 7.7.1 16.7c0 3.2.9 6.2 2.5 8.7.3.5 1 .6 1.4.2.3-.3.4-.8.2-1.2-1.3-2-2-4.3-2.2-6.7h3.8c.5 0 .9-.4.9-.9s-.4-.9-.9-.9H2c.2-3.2 1.5-6.2 3.5-8.4l2.7 2.7c.4.4 1 .4 1.3 0 .4-.4.4-1 0-1.3L6.8 6.2c2.3-2 5.2-3.3 8.4-3.5v3.8c0 .5.4.9.9.9s.9-.4.9-.9V2.7c3.2.2 6.2 1.5 8.4 3.5L23 8.6c-.4.4-.4 1 0 1.3.4.4 1 .4 1.3 0L27 7.2c2 2.3 3.3 5.2 3.5 8.4h-3.8c-.5 0-.9.4-.9.9s.4.9.9.9h3.8c-.2 2.5-.9 4.8-2.2 6.7-.2.4-.2.9.2 1.2.4.4 1.1.3 1.4-.2 1.6-2.5 2.5-5.5 2.5-8.7C32.5 7.7 25.2.5 16.3.5z" fill="#fff"/></svg>