<svg width="34" height="36" viewBox="0 0 34 36" fill="none" xmlns="http://www.w3.org/2000/svg">
<path d="M17.3001 34.2C16.9001 34.2 15.8001 34.2 15.4001 32.6H19.3001C18.8001 34.2 17.7001 34.2 17.3001 34.2ZM20.5001 31.1H14.1001C13.9001 31.1 13.8001 30.9 13.8001 30.8V29.6H20.8001V30.8C20.8001 30.9 20.7001 31.1 20.5001 31.1ZM20.8001 28H13.8001V27.1C13.8001 26.9 13.8001 26.8 13.8001 26.6H20.8001C20.8001 26.8 20.8001 26.9 20.8001 27.1V28ZM26.0001 17.2C26.0001 12.4 22.1001 8.5 17.3001 8.5C12.5001 8.5 8.6001 12.4 8.6001 17.2C8.6001 17.9 8.7001 18.6 8.9001 19.3C9.1001 20.4 9.6001 21.1 10.1001 22.1C10.2001 22.3 10.4001 22.6 10.5001 22.8C10.7001 23.1 10.8001 23.4 11.0001 23.7C11.8001 25 12.2001 25.7 12.2001 27.2V30.8C12.2001 31.7 12.9001 32.4 13.7001 32.6C14.1001 34.6 15.2001 35.8 17.2001 35.8C19.2001 35.8 20.3001 34.6 20.7001 32.6C21.6001 32.4 22.2001 31.7 22.2001 30.8V27.2C22.2001 25.7 22.7001 24.9 23.4001 23.7C23.6001 23.4 23.7001 23.1 23.9001 22.8C24.1001 22.5 24.2001 22.3 24.3001 22.1C24.9001 21.1 25.3001 20.5 25.5001 19.3C25.9001 18.6 26.0001 17.9 26.0001 17.2Z" fill="white"/>
<path d="M33.1001 16.4H29.9001C29.5001 16.4 29.1001 16.7 29.1001 17.2C29.1001 17.6 29.4001 18 29.9001 18H33.1001C33.5001 18 33.9001 17.7 33.9001 17.2C33.8001 16.8 33.5001 16.4 33.1001 16.4Z" fill="white"/>
<path d="M26.2 9.09996C26.4 9.09996 26.6 8.99996 26.7 8.89996L29 6.59996C29.3 6.29996 29.3 5.79996 29 5.49996C28.7 5.19996 28.2 5.19996 27.9 5.49996L25.6 7.79996C25.3 8.09996 25.3 8.59996 25.6 8.89996C25.8 8.99996 26 9.09996 26.2 9.09996Z" fill="white"/>
<path d="M17.3 5.39997C17.7 5.39997 18.1 5.09998 18.1 4.59998V1.39997C18.1 0.999975 17.8 0.599976 17.3 0.599976C16.8 0.599976 16.5 0.899975 16.5 1.39997V4.59998C16.5 4.99998 16.9 5.39997 17.3 5.39997Z" fill="white"/>
<path d="M7.90039 8.89996C8.10039 9.09996 8.20039 9.09996 8.40039 9.09996C8.60039 9.09996 8.80039 8.99996 8.90039 8.89996C9.20039 8.59996 9.20039 8.09996 8.90039 7.79996L6.60039 5.49996C6.30039 5.19996 5.80039 5.19996 5.50039 5.49996C5.20039 5.79996 5.20039 6.29996 5.50039 6.59996L7.90039 8.89996Z" fill="white"/>
<path d="M4.7002 16.4H1.5002C1.1002 16.4 0.700195 16.7 0.700195 17.2C0.700195 17.6 1.0002 18 1.5002 18H4.7002C5.1002 18 5.5002 17.7 5.5002 17.2C5.5002 16.8 5.1002 16.4 4.7002 16.4Z" fill="white"/>
<path d="M7.9 25.6L5.6 27.9C5.3 28.2 5.3 28.7 5.6 29C5.8 29.2 5.9 29.2 6.1 29.2C6.3 29.2 6.5 29.1 6.6 29L8.9 26.7C9.2 26.4 9.2 25.9 8.9 25.6C8.6 25.2 8.1 25.2 7.9 25.6Z" fill="white"/>
<path d="M26.7 25.6C26.4 25.3 25.9 25.3 25.6 25.6C25.3 25.9 25.3 26.4 25.6 26.7L27.9 29C28.1 29.2 28.2 29.2 28.4 29.2C28.6 29.2 28.8 29.1 28.9 29C29.2 28.7 29.2 28.2 28.9 27.9L26.7 25.6Z" fill="white"/>
</svg>
