<svg width="33" height="23" fill="none" xmlns="http://www.w3.org/2000/svg"><path d="M29.2.7c-.4-.5-1.2-.5-1.6 0-.5.4-.5 1.2 0 1.6l.9 1h-4.8c-1 0-2 .4-2.8 1.2l-12 12.3c-.3.3-.7.5-1.1.5H1.4c-.6 0-1.2.5-1.2 1.2s.5 1.2 1.2 1.2h6.4c1 0 2-.4 2.8-1.2l12-12.3c.3-.3.7-.5 1.1-.5h4.8l-.9 1c-.4.5-.4 1.2 0 1.6.2.2.5.3.8.3.3 0 .6-.1.8-.4L32 5.3c.4-.4.4-1.1 0-1.6l-2.8-3z" fill="#fff"/><path d="M1.4 5.6h6.4c.4 0 .8.2 1.1.4l4 4c.2.2.5.3.8.3.3 0 .6-.1.8-.3.4-.4.4-1.2 0-1.6l-4-4c-.7-.7-1.7-1.1-2.7-1.1H1.4C.8 3.3.2 3.8.2 4.5c.1.6.6 1.1 1.2 1.1zM29.2 14.6c-.4-.5-1.2-.5-1.6 0-.5.4-.5 1.2 0 1.6l.9 1h-4.8c-.4 0-.8-.2-1.1-.4l-4.1-4c-.4-.4-1.2-.4-1.6 0-.4.4-.4 1.2 0 1.6l4.1 4c.7.7 1.7 1.1 2.7 1.1h4.8l-.9 1c-.4.5-.4 1.2 0 1.6.2.2.5.3.8.3.3 0 .6-.1.8-.4l2.8-2.9c.4-.4.4-1.1 0-1.6l-2.8-2.9z" fill="#fff"/></svg>