<svg width="36" height="29" viewBox="0 0 36 29" fill="none" xmlns="http://www.w3.org/2000/svg">
<path d="M7.69986 16C7.79986 16.5 7.89985 16.9 7.99985 17.4C9.19985 21.1 12.1999 23.9 15.9999 24.8C20.1999 25.8 24.3999 24.2 26.9999 20.9C27.2999 20.5 27.7999 20.4 28.1999 20.6L29.1999 21C29.7999 21.3 29.9999 22 29.5999 22.6C26.3999 26.9 20.7999 29.1 15.1999 27.8C10.1999 26.6 6.39985 22.9 4.89985 18.3C4.69985 17.5 4.49985 16.8 4.39985 16L3.39985 17.1C2.99985 17.5 2.39985 17.6 1.99985 17.2L1.19985 16.5C0.799854 16.1 0.699855 15.5 1.09985 15.1L4.69986 11.1V11H4.79985L4.99985 10.8C5.39985 10.4 5.99985 10.3 6.39985 10.7L10.6999 14.6C11.0999 15 11.1999 15.6 10.7999 16L10.0999 16.8C9.69985 17.2 9.09986 17.3 8.69986 16.9L7.69986 16ZM28.8999 12.7C28.7999 12.2 28.6999 11.7 28.5999 11.3C27.3999 7.59997 24.3999 4.79997 20.5999 3.89997C16.3999 2.89997 12.0999 4.49997 9.59985 7.79997C9.29985 8.19997 8.79985 8.29997 8.39985 8.09997L7.39985 7.69997C6.79985 7.39997 6.59985 6.69997 6.99985 6.09997C10.1999 1.79997 15.7999 -0.400029 21.3999 0.899971C26.3999 2.09997 30.1999 5.79997 31.6999 10.4C31.8999 11.2 32.0999 11.9 32.1999 12.7L33.1999 11.6C33.5999 11.2 34.1999 11.1 34.5999 11.5L35.3999 12.2C35.7999 12.6 35.8999 13.2 35.4999 13.6L31.8999 17.6V17.7H31.7999L31.5999 18C31.1999 18.4 30.5999 18.5 30.1999 18.1L28.5999 16.7L25.8999 14.2C25.4999 13.8 25.3999 13.2 25.7999 12.8L26.4999 12C26.8999 11.6 27.4999 11.5 27.8999 11.9L28.8999 12.7Z" fill="white"/>
</svg>
