<svg width="34" height="36" fill="none" xmlns="http://www.w3.org/2000/svg"><path d="M17.3 34.2c-.4 0-1.5 0-1.9-1.6h3.9c-.5 1.6-1.6 1.6-2 1.6zm3.2-3.1h-6.4c-.2 0-.3-.2-.3-.3v-1.2h7v1.2c0 .1-.1.3-.3.3zm.3-3.1h-7v-.9-.5h7V28zM26 17.2c0-4.8-3.9-8.7-8.7-8.7-4.8 0-8.7 3.9-8.7 8.7 0 .7.1 1.4.3 2.1.2 1.1.7 1.8 1.2 2.8.1.2.3.5.4.7.2.3.3.6.5.9.8 1.3 1.2 2 1.2 3.5v3.6c0 .9.7 1.6 1.5 1.8.4 2 1.5 3.2 3.5 3.2s3.1-1.2 3.5-3.2c.9-.2 1.5-.9 1.5-1.8v-3.6c0-1.5.5-2.3 1.2-3.5.2-.3.3-.6.5-.9.2-.3.3-.5.4-.7.6-1 1-1.6 1.2-2.8.4-.7.5-1.4.5-2.1zM33.1 16.4h-3.2c-.4 0-.8.3-.8.8 0 .4.3.8.8.8h3.2c.4 0 .8-.3.8-.8-.1-.4-.4-.8-.8-.8zM26.2 9.1c.2 0 .4-.1.5-.2L29 6.6c.3-.3.3-.8 0-1.1-.3-.3-.8-.3-1.1 0l-2.3 2.3c-.3.3-.3.8 0 1.1.2.1.4.2.6.2zM17.3 5.4c.4 0 .8-.3.8-.8V1.4c0-.4-.3-.8-.8-.8s-.8.3-.8.8v3.2c0 .4.4.8.8.8zM7.9 8.9c.2.2.3.2.5.2s.4-.1.5-.2c.3-.3.3-.8 0-1.1L6.6 5.5c-.3-.3-.8-.3-1.1 0-.3.3-.3.8 0 1.1l2.4 2.3zM4.7 16.4H1.5c-.4 0-.8.3-.8.8 0 .4.3.8.8.8h3.2c.4 0 .8-.3.8-.8 0-.4-.4-.8-.8-.8zM7.9 25.6l-2.3 2.3c-.3.3-.3.8 0 1.1.2.2.3.2.5.2s.4-.1.5-.2l2.3-2.3c.3-.3.3-.8 0-1.1-.3-.4-.8-.4-1 0zM26.7 25.6c-.3-.3-.8-.3-1.1 0-.3.3-.3.8 0 1.1l2.3 2.3c.2.2.3.2.5.2s.4-.1.5-.2c.3-.3.3-.8 0-1.1l-2.2-2.3z" fill="#fff"/></svg>