<svg width="61" height="59" viewBox="0 0 61 59" fill="none" xmlns="http://www.w3.org/2000/svg">
<g clip-path="url(#clip0)">
<path d="M42.6 58.7H18C8.1 58.7 0 50.6 0 40.7V18C0 8.1 8.1 0 18 0H42.6C52.5 0 60.6 8.1 60.6 18V40.7C60.6 50.7 52.6 58.7 42.6 58.7Z" fill="#00ABFC"/>
<path fill-rule="evenodd" clip-rule="evenodd" d="M37.5 39.7H23.3C21.5 39.7 20 38.2 20 36.4V22.3C20 20.5 21.5 19 23.3 19H37.5C39.3 19 40.8 20.5 40.8 22.3V36.5C40.8 38.3 39.3 39.7 37.5 39.7Z" stroke="white" stroke-width="3" stroke-miterlimit="10"/>
</g>
<defs>
<clipPath id="clip0">
<rect width="60.6" height="58.7" fill="white"/>
</clipPath>
</defs>
</svg>
