<svg width="50" height="41" fill="none" xmlns="http://www.w3.org/2000/svg"><g clip-path="url(#clip0)" fill-rule="evenodd" clip-rule="evenodd" fill="#7441EE"><path d="M30.145 7.141V2.093c0-1.046.787-1.847 1.816-1.847h4.964c1.029 0 1.816.8 1.816 1.847v5.048c0 1.047-.787 1.847-1.816 1.847H31.96c-.968 0-1.816-.8-1.816-1.847zM41.404 6.957V1.909c0-1.047.787-1.847 1.816-1.847h4.964c1.03 0 1.816.8 1.816 1.847v5.048c0 1.046-.787 1.846-1.816 1.846H43.22c-1.029 0-1.816-.861-1.816-1.846zM41.404 18.346v-5.049c0-1.046.787-1.846 1.816-1.846h4.964c1.03 0 1.816.8 1.816 1.846v5.049c0 1.046-.787 1.846-1.816 1.846H43.22c-1.029 0-1.816-.861-1.816-1.846zM30.145 18.345v-5.048c0-1.046.787-1.847 1.816-1.847h4.964c1.029 0 1.816.8 1.816 1.847v5.048c0 1.047-.787 1.847-1.816 1.847H31.96c-.968 0-1.816-.862-1.816-1.847zM30.145 29.55v-5.048c0-1.047.787-1.847 1.816-1.847h4.964c1.029 0 1.816.8 1.816 1.847v5.048c0 1.046-.787 1.846-1.816 1.846H31.96c-.968 0-1.816-.861-1.816-1.846zM0 7.141V2.093C0 1.047.787.246 1.816.246H6.78c1.029 0 1.816.8 1.816 1.847v5.048c0 1.047-.787 1.847-1.816 1.847H1.816C.786 8.988 0 8.188 0 7.141zM11.199 6.956V1.908c0-1.046.787-1.847 1.816-1.847h4.963c1.03 0 1.816.8 1.816 1.847v5.048c0 1.047-.787 1.847-1.816 1.847h-4.964c-1.028 0-1.815-.862-1.815-1.847zM11.199 18.345v-5.048c0-1.046.787-1.847 1.816-1.847h4.963c1.03 0 1.816.8 1.816 1.847v5.048c0 1.047-.787 1.847-1.816 1.847h-4.964c-1.028 0-1.815-.862-1.815-1.847zM0 18.345v-5.048c0-1.046.787-1.847 1.816-1.847H6.78c1.029 0 1.816.8 1.816 1.847v5.048c0 1.047-.787 1.847-1.816 1.847H1.816C.786 20.192 0 19.33 0 18.345zM0 29.55v-5.048c0-1.047.787-1.847 1.816-1.847H6.78c1.029 0 1.816.8 1.816 1.847v5.048c0 1.046-.787 1.846-1.816 1.846H1.816C.786 31.396 0 30.535 0 29.55zM40.073 39.153v-5.048c0-1.046.787-1.847 1.816-1.847h4.963c1.03 0 1.816.8 1.816 1.847v5.048c0 1.047-.787 1.847-1.816 1.847H41.89c-1.03 0-1.816-.8-1.816-1.847zM9.927 39.153v-5.048c0-1.046.787-1.847 1.816-1.847h4.964c1.03 0 1.816.8 1.816 1.847v5.048c0 1.047-.787 1.847-1.816 1.847h-4.964c-1.029 0-1.816-.8-1.816-1.847z"/></g><defs><clipPath id="clip0"><path fill="#fff" transform="rotate(-180 25 20.5)" d="M0 0h50v41H0z"/></clipPath></defs></svg>